<svg xmlns="http://www.w3.org/2000/svg" version="1.1" xmlns:xlink="http://www.w3.org/1999/xlink" xmlns:svgjs="http://svgjs.dev/svgjs" viewBox="0 0 800 800"><defs><linearGradient x1="50%" y1="0%" x2="50%" y2="100%" id="ccchaos-grad"><stop stop-color="hsl(206, 2%, 28%)" stop-opacity="1" offset="0%"></stop><stop stop-color="hsl(90, 35%, 24%)" stop-opacity="1" offset="100%"></stop></linearGradient></defs><g stroke-width="2" stroke="url(#ccchaos-grad)" fill="none" stroke-linecap="round"><path d="M382.28 99.91C391.74 99.73 401.22 100.53 410.72 102.27 420.24 104.47 429.81 107.52 439.41 111.33 449.06 115.44 458.78 120.17 468.57 125.42 478.45 130.75 488.44 136.46 498.53 142.47 508.74 148.35 519.08 154.41 529.53 160.6 540.1 166.52 550.77 172.5 561.49 178.52 572.28 184.22 583.05 189.94 593.71 195.7 604.3 201.15 614.65 206.66 624.63 212.27 634.31 217.61 643.43 223.11 651.83 228.77 659.66 234.26 666.57 239.97 672.4 245.94 677.44 251.8 681.27 257.95 683.79 264.42 685.46 270.82 685.83 277.57 684.91 284.65 683.35 291.71 680.71 299.12 677.14 306.88 673.39 314.62 669.12 322.7 664.54 331.11 660.45 339.52 656.52 348.25 653 357.3 650.58 366.33 648.91 375.68 648.12 385.34 648.75 394.99 650.26 404.74 652.55 414.55 655.95 424.37 659.77 434.28 663.79 444.27 668.32 454.29 672.58 464.41 676.32 474.62 679.92 484.88 682.61 495.25 684.25 505.7 685.26 516.22 684.99 526.82 683.43 537.46 681.03 548.14 677.32 558.83 672.39 569.45 666.68 580.04 659.88 590.47 652.14 600.66 643.83 610.66 634.79 620.28 625.17 629.38 615.24 638.09 604.93 646.12 594.37 653.33 583.72 659.95 572.96 665.6 562.17 670.16 551.44 674.01 540.76 676.71 530.17 678.21 519.69 679.03 509.33 678.73 499.08 677.37 488.96 675.59 478.95 672.99 469.04 669.72 459.22 666.52 449.47 663.02 439.8 659.44 430.18 656.49 420.6 653.85 411.06 651.67 401.55 650.62 392.05 650.28 382.59 650.74 373.13 652.45 363.91 654.85 354.95 657.8 345.99 661.64 337.28 665.67 328.84 669.67 320.39 673.98 312.22 677.84 304.35 681.05 296.46 683.99 288.86 685.95 281.57 686.83 274.26 687.04 267.25 686 260.54 683.72 253.78 680.64 247.3 676.33 241.1 670.89 234.81 664.73 228.77 657.58 222.98 649.59 217.04 641.08 211.3 631.92 205.75 622.24 200.02 612.31 194.45 602.02 189.04 591.52 183.41 580.95 177.92 570.28 172.59 559.59 167.04 548.96 161.66 538.36 156.48 527.84 151.13 517.43 146.02 507.11 141.18 496.9 136.27 486.79 131.7 476.77 127.52 466.84 123.38 456.99 119.71 447.19 116.56 437.45 113.55 427.76 111.14 418.09 109.38 408.46 107.84 398.84 106.99 389.24 106.87 379.67 107.02 370.1 107.89 360.78 109.46 351.72 111.25 342.66 113.68 333.88 116.7 325.38 119.86 316.9 123.54 308.71 127.69 300.86 131.86 293.02 136.43 285.51 141.33 278.37 146.15 271.24 151.24 264.47 156.57 258.06 161.72 251.65 167.07 245.6 172.59 239.89 177.88 234.14 183.34 228.7 188.94 223.55 194.32 218.29 199.86 213.26 205.56 208.46 211.08 203.44 216.79 198.57 222.71 193.83 228.49 188.78 234.52 183.8 240.8 178.87 246.98 173.59 253.45 168.33 260.21 163.09 266.92 157.52 273.93 152 281.25 146.57 288.54 140.9 296.14 135.41 304.03 130.17 311.91 124.86 320.09 119.94 328.53 115.52 336.97 111.25 345.69 107.62 354.65 104.74 363.61 102.23 372.82 100.59 382.27 99.91" stroke-dasharray="5 8" transform="rotate(0, 400, 400)" opacity="0.80"></path><path d="M385.66 110.5C394.83 110.31 404.06 111.07 413.34 112.72 422.63 114.81 432 117.72 441.43 121.37 450.9 125.31 460.47 129.86 470.11 134.94 479.83 140.12 489.66 145.69 499.58 151.56 509.59 157.35 519.71 163.35 529.89 169.48 540.16 175.39 550.47 181.38 560.77 187.43 571.07 193.18 581.29 198.97 591.34 204.8 601.25 210.33 610.85 215.92 620.02 221.58 628.86 227 637.1 232.53 644.59 238.21 651.54 243.69 657.56 249.37 662.55 255.27 666.82 261.03 669.95 267.06 671.87 273.37 673.05 279.59 673.06 286.13 671.92 292.97 670.25 299.77 667.64 306.9 664.23 314.36 660.72 321.79 656.76 329.55 652.56 337.64 648.84 345.71 645.29 354.11 642.1 362.83 639.93 371.54 638.44 380.57 637.72 389.92 638.28 399.27 639.63 408.72 641.67 418.27 644.74 427.82 648.2 437.48 651.84 447.23 655.99 457 659.92 466.88 663.42 476.83 666.86 486.83 669.51 496.92 671.24 507.07 672.45 517.25 672.53 527.48 671.45 537.71 669.63 547.94 666.62 558.13 662.45 568.19 657.58 578.17 651.65 587.94 644.81 597.41 637.4 606.65 629.25 615.46 620.47 623.71 611.36 631.58 601.8 638.74 591.93 645.09 581.92 650.89 571.71 655.75 561.42 659.58 551.12 662.78 540.81 664.91 530.54 665.96 520.34 666.43 510.21 665.9 500.18 664.43 490.24 662.65 480.39 660.15 470.64 657.08 460.97 654.13 451.39 650.95 441.89 647.7 432.45 645.08 423.06 642.73 413.75 640.82 404.46 639.93 395.22 639.69 386.04 640.14 376.87 641.75 367.96 643.97 359.33 646.66 350.68 650.2 342.31 653.9 334.21 657.59 326.1 661.61 318.27 665.24 310.73 668.3 303.16 671.18 295.88 673.2 288.89 674.25 281.86 674.74 275.1 674.11 268.63 672.34 262.1 669.87 255.81 666.25 249.79 661.57 243.66 656.22 237.75 649.91 232.05 642.75 226.21 635.1 220.54 626.76 215.06 617.86 209.38 608.67 203.84 599.08 198.46 589.21 192.87 579.22 187.41 569.06 182.11 558.81 176.6 548.58 171.27 538.32 166.12 528.1 160.83 517.95 155.77 507.86 151 497.85 146.16 487.92 141.65 478.07 137.54 468.31 133.47 458.62 129.86 449 126.77 439.46 123.83 429.95 121.46 420.5 119.73 411.12 118.23 401.75 117.39 392.43 117.28 383.18 117.42 373.93 118.29 364.95 119.82 356.26 121.58 347.57 123.96 339.16 126.92 331.06 130.03 322.96 133.65 315.17 137.72 307.7 141.83 300.23 146.33 293.1 151.16 286.31 155.92 279.5 160.96 273.04 166.23 266.92 171.35 260.76 176.66 254.92 182.13 249.4 187.4 243.81 192.83 238.48 198.39 233.42 203.74 228.21 209.24 223.2 214.89 218.38 220.35 213.34 225.98 208.41 231.81 203.59 237.48 198.48 243.37 193.42 249.48 188.4 255.49 183.06 261.76 177.75 268.29 172.47 274.76 166.89 281.5 161.38 288.53 155.98 295.52 150.38 302.8 144.97 310.37 139.83 317.91 134.65 325.74 129.87 333.85 125.57 341.94 121.44 350.32 117.94 358.96 115.16 367.58 112.75 376.49 111.17 385.65 110.5" stroke-dasharray="2 4" transform="rotate(4.04, 400, 400)" opacity="0.36"></path><path d="M389.71 121.09C398.59 120.9 407.57 121.6 416.61 123.16 425.67 125.14 434.81 127.91 444.03 131.39 453.29 135.16 462.65 139.53 472.09 144.43 481.59 149.43 491.18 154.84 500.84 160.57 510.57 166.24 520.37 172.14 530.2 178.19 540.06 184.07 549.92 190.04 559.7 196.09 569.45 201.87 579.04 207.71 588.4 213.59 597.58 219.19 606.4 224.85 614.75 230.58 622.74 236.06 630.11 241.64 636.72 247.34 642.81 252.85 648.01 258.52 652.22 264.38 655.79 270.1 658.29 276.05 659.69 282.23 660.47 288.33 660.18 294.7 658.89 301.35 657.16 307.94 654.62 314.84 651.39 322.04 648.13 329.21 644.49 336.69 640.65 344.49 637.3 352.27 634.1 360.37 631.23 368.78 629.3 377.18 627.96 385.9 627.31 394.95 627.82 403.99 629.02 413.15 630.82 422.41 633.58 431.67 636.68 441.05 639.96 450.51 643.74 459.99 647.35 469.56 650.6 479.2 653.84 488.87 656.41 498.61 658.18 508.37 659.54 518.15 659.9 527.93 659.22 537.67 657.91 547.38 655.5 556.98 652.04 566.42 647.93 575.73 642.83 584.79 636.83 593.5 630.31 601.95 623.02 609.95 615.1 617.36 606.82 624.39 598.06 630.72 588.92 636.26 579.6 641.28 570.03 645.41 560.31 648.59 550.54 651.21 540.69 652.86 530.83 653.52 521 653.71 511.19 653.01 501.45 651.48 491.78 649.73 482.17 647.36 472.66 644.51 463.2 641.83 453.83 638.95 444.55 636.03 435.31 633.72 426.15 631.66 417.08 629.99 408.03 629.26 399.04 629.1 390.14 629.55 381.24 631.06 372.63 633.09 364.29 635.55 355.95 638.79 347.88 642.18 340.09 645.57 332.28 649.29 324.74 652.68 317.49 655.59 310.2 658.37 303.18 660.4 296.44 661.58 289.65 662.3 283.12 662.01 276.84 660.69 270.48 658.76 264.36 655.77 258.47 651.79 252.46 647.19 246.65 641.68 241.04 635.34 235.27 628.51 229.66 620.99 224.21 612.9 218.57 604.48 213.07 595.63 207.71 586.44 202.16 577.09 196.73 567.52 191.46 557.81 186 548.05 180.71 538.23 175.62 528.4 170.4 518.6 165.41 508.81 160.7 499.09 155.94 489.42 151.52 479.82 147.48 470.3 143.5 460.82 139.97 451.43 136.95 442.12 134.08 432.84 131.77 423.63 130.08 414.52 128.61 405.41 127.8 396.38 127.69 387.44 127.83 378.5 128.67 369.85 130.17 361.5 131.89 353.15 134.22 345.09 137.11 337.34 140.15 329.59 143.69 322.14 147.68 315.01 151.71 307.87 156.13 301.05 160.88 294.55 165.58 288.02 170.55 281.81 175.75 275.9 180.82 269.95 186.08 264.28 191.51 258.89 196.75 253.4 202.15 248.15 207.67 243.13 213 237.94 218.47 232.93 224.07 228.07 229.49 222.98 235.07 218 240.81 213.1 246.4 207.92 252.19 202.79 258.18 197.7 264.05 192.32 270.16 186.97 276.5 181.66 282.76 176.1 289.29 170.62 296.07 165.27 302.8 159.76 309.81 154.45 317.1 149.43 324.35 144.39 331.88 139.76 339.68 135.6 347.47 131.62 355.53 128.26 363.87 125.59 372.2 123.27 380.81 121.74 389.7 121.09" stroke-dasharray="4 3" transform="rotate(8.08, 400, 400)" opacity="0.91"></path><path d="M394.23 131.68C402.84 131.48 411.55 132.14 420.33 133.61 429.13 135.47 438.03 138.09 447 141.4 456 145 465.1 149.18 474.26 153.87 483.47 158.7 492.76 163.93 502.09 169.48 511.45 175.02 520.85 180.79 530.23 186.75 539.62 192.56 548.94 198.49 558.14 204.5 567.26 210.3 576.18 216.16 584.8 222.06 593.22 227.72 601.24 233.44 608.75 239.21 615.9 244.76 622.42 250.39 628.2 256.13 633.49 261.67 637.92 267.36 641.43 273.2 644.37 278.89 646.33 284.79 647.29 290.89 647.72 296.89 647.22 303.14 645.82 309.63 644.09 316.06 641.65 322.77 638.62 329.75 635.62 336.7 632.3 343.94 628.83 351.48 625.82 358.99 622.96 366.81 620.39 374.93 618.68 383.04 617.49 391.47 616.9 400.2 617.36 408.94 618.42 417.79 620 426.73 622.46 435.68 625.23 444.74 628.16 453.86 631.58 463.01 634.86 472.23 637.84 481.49 640.88 490.77 643.33 500.09 645.1 509.4 646.55 518.71 647.12 527.97 646.76 537.15 645.88 546.27 644.01 555.25 641.16 564 637.75 572.62 633.41 580.93 628.21 588.85 622.52 596.52 616.08 603.7 609 610.3 601.56 616.52 593.6 622.06 585.23 626.84 576.66 631.15 567.78 634.63 558.68 637.22 549.51 639.33 540.2 640.56 530.83 640.91 521.45 640.88 512.06 640.07 502.69 638.53 493.35 636.85 484.06 634.64 474.84 632.02 465.66 629.6 456.56 627.02 447.54 624.43 438.56 622.41 429.65 620.62 420.84 619.17 412.04 618.59 403.32 618.51 394.7 618.96 386.08 620.36 377.74 622.23 369.69 624.46 361.62 627.42 353.83 630.51 346.31 633.6 338.77 637.03 331.5 640.18 324.49 642.9 317.45 645.57 310.66 647.58 304.13 648.83 297.53 649.73 291.18 649.72 285.06 648.78 278.85 647.32 272.86 644.9 267.07 641.55 261.16 637.66 255.43 632.89 249.87 627.33 244.16 621.31 238.6 614.6 233.18 607.3 227.58 599.67 222.11 591.58 216.77 583.11 211.26 574.45 205.87 565.52 200.63 556.41 195.23 547.21 190 537.9 184.97 528.53 179.83 519.16 174.92 509.77 170.29 500.41 165.63 491.08 161.3 481.78 157.36 472.56 153.48 463.37 150.04 454.25 147.09 445.22 144.3 436.21 142.06 427.28 140.41 418.45 138.99 409.63 138.21 400.89 138.09 392.26 138.24 383.63 139.06 375.29 140.51 367.27 142.18 359.23 144.44 351.49 147.26 344.06 150.22 336.62 153.67 329.47 157.56 322.63 161.51 315.77 165.84 309.21 170.49 302.95 175.11 296.66 180 290.64 185.12 284.91 190.14 279.11 195.34 273.56 200.71 268.26 205.92 262.85 211.28 257.64 216.76 252.62 222.07 247.43 227.51 242.39 233.07 237.48 238.46 232.35 243.99 227.3 249.67 222.33 255.21 217.1 260.91 211.91 266.8 206.76 272.56 201.35 278.54 195.98 284.73 190.68 290.83 185.16 297.17 179.73 303.75 174.45 310.27 169.05 317.05 163.86 324.09 158.97 331.08 154.09 338.35 149.61 345.88 145.61 353.39 141.79 361.17 138.56 369.23 136 377.28 133.78 385.61 132.32 394.22 131.69" stroke-dasharray="1 6" transform="rotate(12.12, 400, 400)" opacity="0.10"></path><path d="M399.02 142.28C407.35 142.07 415.78 142.67 424.28 144.05 432.8 145.81 441.41 148.28 450.09 151.41 458.8 154.82 467.58 158.81 476.41 163.29 485.27 167.92 494.18 172.95 503.1 178.32 512.04 183.69 520.96 189.32 529.83 195.14 538.67 200.86 547.4 206.72 555.95 212.67 564.4 218.44 572.6 224.29 580.47 230.2 588.11 235.89 595.33 241.64 602.01 247.45 608.36 253.05 614.07 258.73 619.07 264.49 623.61 270.07 627.35 275.78 630.23 281.61 632.61 287.3 634.1 293.16 634.7 299.2 634.86 305.14 634.2 311.29 632.75 317.66 631.06 323.96 628.75 330.51 625.94 337.31 623.2 344.06 620.21 351.09 617.08 358.39 614.4 365.66 611.86 373.22 609.58 381.06 608.08 388.9 607.03 397.02 606.49 405.45 606.9 413.87 607.83 422.39 609.21 431 611.4 439.61 613.84 448.31 616.44 457.06 619.51 465.83 622.47 474.65 625.18 483.48 627.99 492.32 630.3 501.16 632.02 509.96 633.51 518.74 634.23 527.44 634.13 536.01 633.6 544.49 632.18 552.8 629.88 560.84 627.09 568.73 623.44 576.29 618.98 583.43 614.07 590.32 608.43 596.72 602.16 602.53 595.54 607.99 588.39 612.79 580.8 616.87 572.99 620.54 564.83 623.43 556.42 625.51 547.89 627.19 539.19 628.08 530.37 628.18 521.52 627.99 512.6 627.11 503.67 625.61 494.75 624.02 485.84 621.99 476.98 619.62 468.14 617.46 459.35 615.18 450.64 612.9 441.95 611.15 433.33 609.62 424.8 608.38 416.29 607.94 407.85 607.92 399.5 608.36 391.16 609.67 383.09 611.38 375.31 613.4 367.51 616.09 359.97 618.89 352.7 621.69 345.41 624.83 338.36 627.73 331.57 630.27 324.74 632.8 318.15 634.75 311.79 636.04 305.37 637.06 299.16 637.27 293.17 636.66 287.09 635.6 281.2 633.67 275.49 630.9 269.66 627.64 263.99 623.56 258.48 618.73 252.82 613.47 247.29 607.54 241.9 601.02 236.35 594.19 230.91 586.86 225.6 579.13 220.14 571.2 214.8 562.95 209.61 554.48 204.28 545.9 199.12 537.16 194.16 528.33 189.11 519.46 184.3 510.53 179.77 501.6 175.22 492.67 171.01 483.76 167.16 474.89 163.39 466.04 160.06 457.25 157.2 448.54 154.5 439.84 152.33 431.22 150.74 422.69 149.37 414.17 148.61 405.74 148.5 397.42 148.65 389.1 149.44 381.07 150.84 373.35 152.46 365.61 154.65 358.17 157.37 351.02 160.25 343.86 163.6 336.98 167.38 330.39 171.22 323.77 175.44 317.43 179.98 311.37 184.51 305.25 189.31 299.39 194.34 293.79 199.28 288.11 204.42 282.64 209.72 277.39 214.88 272.03 220.19 266.83 225.63 261.8 230.91 256.61 236.31 251.53 241.84 246.56 247.2 241.39 252.69 236.28 258.32 231.25 263.8 225.97 269.45 220.74 275.25 215.57 280.93 210.15 286.8 204.8 292.86 199.52 298.83 194.06 305.02 188.71 311.43 183.53 317.77 178.25 324.35 173.21 331.17 168.47 337.95 163.76 344.98 159.44 352.26 155.6 359.52 151.94 367.05 148.85 374.84 146.41 382.62 144.29 390.67 142.89 399.01 142.28" stroke-dasharray="10 6" transform="rotate(16.16, 400, 400)" opacity="0.31"></path><path d="M403.85 152.87C411.9 152.66 420.03 153.21 428.23 154.5 436.44 156.14 444.73 158.46 453.07 161.42 461.43 164.64 469.85 168.42 478.29 172.69 486.75 177.1 495.23 181.92 503.68 187.09 512.12 192.28 520.52 197.73 528.81 203.4 537.05 208.99 545.14 214.74 553.02 220.6 560.77 226.32 568.23 232.13 575.33 238 582.21 243.7 588.64 249.46 594.53 255.27 600.11 260.91 605.06 266.61 609.33 272.39 613.2 278.01 616.32 283.72 618.64 289.55 620.55 295.25 621.65 301.08 621.96 307.07 621.91 312.96 621.14 319.03 619.69 325.3 618.07 331.49 615.93 337.9 613.35 344.53 610.88 351.12 608.2 357.95 605.41 365.03 603.05 372.08 600.81 379.39 598.79 386.96 597.49 394.52 596.57 402.35 596.08 410.45 596.45 418.55 597.25 426.73 598.45 434.97 600.37 443.22 602.52 451.53 604.8 459.88 607.53 468.22 610.17 476.6 612.61 484.96 615.18 493.31 617.32 501.63 618.96 509.87 620.44 518.08 621.25 526.17 621.35 534.09 621.1 541.92 620.06 549.53 618.23 556.85 615.98 564.01 612.94 570.82 609.15 577.2 604.96 583.34 600.08 588.98 594.57 594.05 588.75 598.81 582.38 602.93 575.56 606.38 568.51 609.47 561.1 611.86 553.39 613.51 545.55 614.82 537.49 615.44 529.27 615.36 521 615.06 512.62 614.16 504.19 612.73 495.75 611.27 487.28 609.43 478.82 607.3 470.38 605.41 461.96 603.42 453.6 601.43 445.25 599.95 436.95 598.65 428.73 597.61 420.53 597.29 412.38 597.33 404.33 597.77 396.27 598.99 388.48 600.54 380.95 602.36 373.41 604.79 366.12 607.32 359.08 609.84 352.01 612.7 345.18 615.35 338.58 617.68 331.94 620.05 325.52 621.92 319.31 623.22 313.04 624.3 306.96 624.68 301.07 624.33 295.1 623.62 289.29 622.12 283.65 619.84 277.89 617.16 272.28 613.71 266.81 609.55 261.2 605.01 255.72 599.82 250.36 594.06 244.85 587.98 239.46 581.42 234.19 574.43 228.78 567.23 223.51 559.7 218.38 551.9 213.14 543.98 208.07 535.86 203.2 527.6 198.26 519.29 193.56 510.89 189.14 502.44 184.73 493.98 180.63 485.5 176.9 477.05 173.26 468.6 170.04 460.18 167.28 451.83 164.68 443.48 162.59 435.2 161.06 427 159.74 418.81 159.02 410.71 158.91 402.7 159.05 394.69 159.81 386.97 161.16 379.53 162.72 372.09 164.83 364.92 167.45 358.03 170.23 351.12 173.47 344.47 177.13 338.1 180.86 331.69 184.96 325.54 189.37 319.63 193.79 313.67 198.48 307.93 203.4 302.42 208.25 296.83 213.31 291.43 218.52 286.21 223.63 280.87 228.88 275.67 234.26 270.62 239.49 265.41 244.86 260.3 250.33 255.28 255.66 250.07 261.12 244.92 266.69 239.84 272.14 234.55 277.72 229.3 283.45 224.11 289.06 218.73 294.85 213.41 300.8 208.19 306.66 202.81 312.72 197.57 318.97 192.5 325.16 187.37 331.57 182.49 338.2 177.91 344.78 173.38 351.6 169.25 358.65 165.57 365.68 162.08 372.96 159.14 380.49 156.82 388.01 154.8 395.79 153.46 403.84 152.87" stroke-dasharray="3 5" transform="rotate(20.200000000000003, 400, 400)" opacity="0.79"></path><path d="M408.5 163.46C416.25 163.25 424.07 163.75 431.94 164.95 439.82 166.47 447.75 168.65 455.72 171.42 463.7 174.46 471.7 178.02 479.71 182.06 487.71 186.26 495.7 190.85 503.64 195.79 511.54 200.78 519.36 206.04 527.04 211.52 534.66 216.95 542.08 222.56 549.26 228.3 556.3 233.93 563.02 239.67 569.37 245.48 575.5 251.14 581.17 256.87 586.32 262.67 591.17 268.3 595.43 274.01 599.05 279.78 602.31 285.41 604.88 291.13 606.74 296.94 608.24 302.63 609.03 308.44 609.11 314.38 608.92 320.23 608.09 326.23 606.68 332.4 605.16 338.49 603.2 344.78 600.86 351.26 598.67 357.69 596.29 364.34 593.82 371.2 591.76 378.04 589.81 385.1 588.04 392.4 586.91 399.69 586.11 407.22 585.67 414.98 586 422.75 586.69 430.57 587.71 438.43 589.39 446.29 591.26 454.19 593.25 462.09 595.65 469.99 597.99 477.88 600.15 485.73 602.47 493.56 604.43 501.33 605.95 508.99 607.38 516.59 608.24 524.05 608.47 531.31 608.44 538.47 607.7 545.38 606.26 551.99 604.48 558.43 601.97 564.51 598.78 570.16 595.24 575.58 591.04 580.51 586.26 584.9 581.17 589.01 575.56 592.54 569.49 595.43 563.2 598.02 556.52 599.97 549.52 601.26 542.39 602.28 535 602.68 527.42 602.48 519.76 602.12 511.96 601.25 504.07 599.92 496.16 598.6 488.18 596.96 480.18 595.08 472.18 593.45 464.18 591.74 456.2 590.03 448.23 588.8 440.29 587.72 432.41 586.86 424.54 586.65 416.71 586.75 408.95 587.18 401.2 588.31 393.68 589.71 386.41 591.34 379.13 593.53 372.07 595.79 365.25 598.05 358.4 600.63 351.76 603.03 345.34 605.16 338.88 607.35 332.61 609.12 326.54 610.38 320.4 611.5 314.44 612 308.65 611.85 302.77 611.42 297.04 610.28 291.47 608.44 285.78 606.25 280.22 603.37 274.8 599.82 269.25 595.94 263.81 591.45 258.49 586.39 253.05 581.05 247.71 575.22 242.5 568.96 237.18 562.5 231.98 555.68 226.93 548.57 221.8 541.33 216.84 533.86 212.08 526.22 207.27 518.51 202.7 510.67 198.41 502.75 194.14 494.81 190.18 486.82 186.59 478.82 183.08 470.82 179.98 462.82 177.33 454.86 174.84 446.91 172.84 438.99 171.37 431.15 170.12 423.31 169.42 415.54 169.32 407.86 169.46 400.17 170.18 392.75 171.47 385.6 172.97 378.43 174.99 371.52 177.51 364.87 180.18 358.19 183.3 351.77 186.82 345.58 190.42 339.36 194.38 333.36 198.66 327.58 202.95 321.75 207.51 316.12 212.3 310.68 217.05 305.15 222 299.8 227.11 294.59 232.14 289.27 237.31 284.08 242.61 279.01 247.79 273.78 253.1 268.65 258.52 263.59 263.8 258.37 269.21 253.2 274.73 248.09 280.13 242.8 285.66 237.57 291.31 232.4 296.86 227.07 302.57 221.82 308.42 216.68 314.19 211.42 320.13 206.3 326.24 201.38 332.3 196.42 338.55 191.71 345 187.31 351.4 182.98 358.02 179.03 364.86 175.53 371.67 172.21 378.71 169.42 385.98 167.22 393.24 165.3 400.75 164.03 408.49 163.46" stroke-dasharray="11 0" transform="rotate(24.24, 400, 400)" opacity="0.39"></path><path d="M412.76 174.06C420.2 173.84 427.68 174.29 435.19 175.4 442.71 176.81 450.26 178.84 457.81 181.43 465.37 184.27 472.93 187.62 480.46 191.42 487.97 195.39 495.44 199.74 502.81 204.44 510.15 209.2 517.37 214.24 524.41 219.52 531.38 224.77 538.13 230.21 544.6 235.79 550.94 241.29 556.95 246.91 562.57 252.62 567.98 258.22 572.94 263.89 577.4 269.63 581.59 275.24 585.22 280.91 588.26 286.65 590.99 292.27 593.09 297.97 594.55 303.74 595.72 309.41 596.26 315.19 596.18 321.07 595.9 326.86 595.07 332.79 593.73 338.85 592.34 344.85 590.57 351.01 588.48 357.34 586.55 363.62 584.47 370.08 582.31 376.73 580.53 383.36 578.84 390.18 577.31 397.2 576.34 404.21 575.65 411.43 575.26 418.85 575.55 426.26 576.14 433.71 577 441.17 578.45 448.62 580.06 456.08 581.77 463.52 583.86 470.94 585.9 478.33 587.79 485.64 589.86 492.93 591.62 500.12 593.01 507.17 594.36 514.17 595.21 520.99 595.52 527.58 595.64 534.08 595.15 540.31 594.03 546.21 591.6 554.66 583.15 569.21 577.24 575.13 572.84 578.66 567.94 581.64 562.58 584.05 557.01 586.22 551.06 587.8 544.76 588.8 538.33 589.6 531.62 589.85 524.68 589.58 517.67 589.2 510.48 588.39 503.16 587.18 495.8 586.02 488.35 584.6 480.85 582.97 473.33 581.59 465.78 580.14 458.23 578.7 450.67 577.7 443.13 576.82 435.61 576.13 428.09 576.02 420.6 576.17 413.16 576.59 405.72 577.63 398.49 578.9 391.49 580.35 384.46 582.3 377.65 584.32 371.04 586.32 364.41 588.63 357.96 590.78 351.71 592.7 345.42 594.71 339.3 596.35 333.36 597.56 324.43 598.95 307.2 598.6 298.87 596.71 293.27 594.96 287.78 592.57 282.4 589.57 276.93 586.29 271.55 582.42 266.3 578.03 260.93 573.38 255.67 568.25 250.54 562.7 245.31 556.95 240.22 550.84 235.28 544.42 230.27 537.86 225.43 531.05 220.8 524.05 216.15 516.96 211.73 509.72 207.58 502.37 203.47 494.98 199.66 487.51 196.21 480 192.85 472.48 189.89 464.94 187.36 457.41 184.98 449.88 183.08 442.36 181.68 434.9 180.48 427.43 179.82 420.02 179.73 412.67 179.86 405.31 180.55 398.2 181.78 391.32 183.21 384.43 185.14 377.78 187.54 371.35 190.09 364.9 193.08 358.67 196.45 352.66 199.92 346.61 203.73 340.75 207.85 335.09 211.99 329.38 216.41 323.83 221.06 318.45 225.68 312.99 230.5 307.67 235.49 302.49 240.41 297.19 245.49 292 250.69 286.92 255.8 281.69 261.03 276.55 266.37 271.48 271.6 266.26 276.94 261.1 282.4 256 287.74 250.75 293.2 245.55 298.78 240.44 304.26 235.19 309.88 230.04 315.63 225.01 321.31 219.89 327.14 214.93 333.12 210.17 339.04 205.4 345.14 200.88 351.42 196.67 357.65 192.55 364.08 188.79 370.7 185.48 377.29 182.34 384.09 179.7 391.1 177.62 398.1 175.8 405.32 174.6 412.75 174.06" stroke-dasharray="2 5" transform="rotate(28.28, 400, 400)" opacity="0.38"></path><path d="M416.43 184.65C423.54 184.43 430.66 184.84 437.79 185.86 444.92 187.16 452.06 189.03 459.17 191.44 466.28 194.08 473.36 197.21 480.38 200.78 487.38 204.5 494.3 208.61 501.09 213.05 507.85 217.57 514.44 222.37 520.85 227.41 527.17 232.45 533.25 237.69 539.04 243.08 544.69 248.42 550.01 253.89 554.94 259.46 559.69 264.94 564 270.52 567.82 276.16 571.42 281.7 574.5 287.31 577.02 292.98 580.16 301.37 583.24 318.39 583.23 327.05 582.9 332.77 582.1 338.61 580.87 344.56 579.62 350.46 578.05 356.48 576.21 362.64 574.55 368.77 572.74 375.05 570.88 381.47 569.37 387.88 567.92 394.46 566.6 401.19 565.79 407.92 565.2 414.81 564.85 421.87 565.1 428.93 565.6 435.99 566.32 443.02 567.56 450.05 568.92 457.06 570.37 464.01 572.17 470.95 573.93 477.81 575.56 484.58 577.37 491.31 578.92 497.92 580.16 504.37 581.4 510.75 582.21 516.94 582.56 522.88 582.61 531.51 579.66 547.01 576.6 553.7 572.62 559.7 561.67 569.07 554.85 572.33 547.33 574.78 530.31 576.92 521.01 576.69 514.64 576.34 508.07 575.61 501.34 574.55 494.57 573.56 487.67 572.35 480.68 570.97 473.68 569.83 466.61 568.63 459.5 567.44 452.39 566.65 445.26 565.96 438.13 565.42 431 565.4 423.87 565.58 416.76 565.99 409.65 566.95 402.73 568.09 395.99 569.38 389.24 571.11 382.67 572.89 376.28 574.65 369.87 576.7 363.62 578.61 357.54 580.32 351.43 582.14 345.46 583.64 339.65 584.76 330.91 586.13 314.01 586.19 305.8 584.72 300.29 583.33 294.88 581.37 289.58 578.85 284.2 576.09 278.91 572.8 273.73 569.01 268.47 565 263.32 560.52 258.29 555.64 253.19 550.57 248.22 545.14 243.41 539.39 238.55 533.51 233.86 527.37 229.38 521 224.9 514.55 220.64 507.92 216.66 501.15 212.72 494.34 209.08 487.41 205.79 480.42 202.59 473.41 199.77 466.36 197.36 459.28 195.11 452.2 193.3 445.11 191.98 438.03 190.85 430.97 190.23 423.92 190.14 416.91 190.26 409.9 190.92 403.09 192.08 396.5 193.43 389.89 195.27 383.48 197.55 377.28 199.98 371.05 202.82 365.02 206.03 359.17 209.34 353.28 212.99 347.56 216.94 342.01 220.92 336.41 225.17 330.95 229.66 325.64 234.13 320.24 238.8 314.97 243.65 309.81 248.45 304.55 253.4 299.38 258.48 294.3 263.49 289.11 268.62 283.98 273.86 278.92 279.01 273.74 284.27 268.61 289.63 263.56 294.9 258.37 300.28 253.26 305.77 248.23 311.17 243.1 316.7 238.07 322.34 233.19 327.92 228.23 333.63 223.45 339.47 218.88 345.27 214.31 351.21 210 357.31 206 363.37 202.09 369.6 198.54 376 195.41 382.38 192.45 388.94 189.97 395.67 188.01 402.4 186.3 409.32 185.17 416.42 184.65" stroke-dasharray="11 8" transform="rotate(32.32, 400, 400)" opacity="0.90"></path><path d="M419.34 195.24C426.09 195.02 432.84 195.39 439.57 196.32 446.29 197.5 452.99 199.23 459.64 201.46 466.28 203.9 472.86 206.81 479.35 210.13 485.82 213.61 492.18 217.46 498.39 221.63 504.55 225.89 510.53 230.43 516.3 235.21 521.98 240.02 527.42 245.02 532.55 250.19 537.56 255.34 542.24 260.62 546.53 266.01 550.67 271.34 554.38 276.77 557.65 282.28 560.72 287.71 563.31 293.21 565.41 298.78 568 307.04 570.4 323.79 570.28 332.29 569.95 337.93 569.21 343.65 568.1 349.47 567.01 355.24 565.65 361.11 564.07 367.1 562.65 373.05 561.12 379.13 559.53 385.32 558.26 391.5 557.04 397.81 555.92 404.24 555.25 410.67 554.75 417.23 554.45 423.92 554.66 430.61 555.07 437.26 555.66 443.86 556.7 450.46 557.85 457 559.05 463.45 560.58 469.89 562.06 476.23 563.44 482.45 565 488.63 566.34 494.66 567.41 500.5 568.88 509.08 569.76 524.89 568.97 531.98 567.45 538.56 561.61 549.58 557.31 553.93 552.26 557.58 539.77 562.37 532.49 563.52 524.7 564.08 507.63 563.24 498.52 562.02 492.34 561.22 486 560.22 479.55 559.07 473.08 558.16 466.51 557.21 459.87 556.24 453.23 555.65 446.54 555.13 439.81 554.73 433.09 554.78 426.34 555.01 419.59 555.4 412.83 556.28 406.22 557.3 399.77 558.43 393.31 559.96 386.99 561.51 380.83 563.05 374.65 564.85 368.62 566.53 362.72 568.03 353.89 570.31 336.8 573.31 328.52 573.78 320.26 573.62 304.17 570.6 296.32 567.7 291.05 565.4 285.87 562.61 280.81 559.36 275.67 555.93 270.65 552.05 265.75 547.79 260.8 543.36 255.98 538.57 251.33 533.47 246.64 528.24 242.13 522.74 237.82 517 233.52 511.18 229.46 505.16 225.65 498.98 221.9 492.75 218.44 486.39 215.32 479.94 212.29 473.45 209.62 466.9 207.35 460.29 205.22 453.68 203.52 447.03 202.28 440.37 201.22 433.71 200.63 427.05 200.55 420.4 200.66 413.74 201.28 407.26 202.38 400.95 203.65 394.63 205.38 388.48 207.53 382.5 209.83 376.5 212.52 370.66 215.56 364.97 218.71 359.26 222.18 353.68 225.94 348.25 229.75 342.76 233.82 337.4 238.11 332.16 242.42 326.85 246.92 321.63 251.6 316.52 256.24 311.32 261.05 306.2 265.98 301.15 270.86 296.01 275.87 290.93 280.98 285.92 286.02 280.81 291.17 275.75 296.42 270.77 301.6 265.69 306.87 260.69 312.25 255.79 317.55 250.81 322.97 245.94 328.49 241.22 333.95 236.46 339.53 231.88 345.22 227.52 350.87 223.17 356.65 219.09 362.56 215.3 368.44 211.61 374.47 208.27 380.63 205.33 386.78 202.56 393.08 200.24 399.53 198.41 405.98 196.8 412.58 195.74 419.33 195.24" stroke-dasharray="3 11" transform="rotate(36.36, 400, 400)" opacity="0.99"></path><path d="M421.35 205.83C427.74 205.61 434.09 205.94 440.39 206.78 446.69 207.86 452.94 209.44 459.11 211.49 471.42 216.17 483.35 222.51 494.65 230.19 505.76 238.25 516.03 247.33 525.19 257.15 533.9 266.96 541.24 277.31 546.95 288.02 552.03 298.5 555.38 309.3 556.9 320.32 557.94 331.1 557.4 342.19 555.46 353.53 553.71 364.72 551.19 376.29 548.26 388.18 547.22 394.11 546.21 400.14 545.26 406.27 544.72 412.38 544.31 418.6 544.04 424.9 544.22 431.2 544.55 437.44 545.02 443.6 545.89 449.76 546.83 455.83 547.81 461.79 550.63 473.66 553.08 485.01 554.79 495.6 556.72 505.97 557.28 515.4 556.28 523.62 554.81 531.42 551.54 537.83 546.54 542.65 540.91 546.97 533.65 549.69 525.02 550.79 515.94 551.64 505.73 551.19 494.67 549.63 483.42 548.52 471.53 546.92 459.24 545.12 453.08 544.7 446.84 544.33 440.54 544.06 434.24 544.18 427.89 544.43 421.5 544.81 415.11 545.61 408.84 546.52 402.69 547.5 396.53 548.84 390.5 550.19 384.58 551.51 372.71 554.85 361.27 557.56 350.3 559.32 339.18 561.13 328.42 561.43 318.08 560.1 307.52 558.23 297.3 554.54 287.51 549.15 277.52 543.13 267.98 535.55 259.05 526.66 250.07 517.34 241.83 506.95 234.57 495.81 227.54 484.47 221.71 472.56 217.32 460.32 215.33 454.19 213.74 448 212.57 441.76 211.58 435.53 211.03 429.26 210.96 422.98 211.06 416.69 211.64 410.54 212.67 404.52 213.86 398.5 215.49 392.62 217.5 386.87 221.94 375.33 227.81 364.27 234.86 353.7 242.13 342.96 250.37 332.58 259.34 322.58 268.25 312.28 277.77 302.23 287.73 292.48 297.48 282.38 307.66 272.55 318.18 263.13 328.48 253.49 339.19 244.39 350.28 236.1 361.21 227.94 372.62 220.88 384.47 215.25 390.37 212.67 396.4 210.5 402.55 208.8 408.69 207.3 414.96 206.3 421.34 205.84" stroke-dasharray="4 3" transform="rotate(40.400000000000006, 400, 400)" opacity="0.66"></path><path d="M422.37 216.43C434.37 216.21 446.14 217.98 457.52 221.53 468.85 225.8 479.71 231.64 489.88 238.75 499.86 246.24 508.98 254.75 517 263.99 524.63 273.29 530.96 283.16 535.81 293.41 540.15 303.51 542.96 313.94 544.17 324.59 545.06 335.06 544.6 345.81 542.95 356.75 541.55 367.57 539.5 378.69 537.06 390.04 535.68 401.35 534.48 412.96 533.63 424.77 534.33 436.59 535.39 448.04 536.65 458.99 538.98 469.89 540.96 480.18 542.31 489.67 543.94 498.98 544.4 507.33 543.54 514.51 542.36 521.36 539.62 526.92 535.33 531.03 530.56 534.79 524.29 537.13 516.73 538.07 508.79 538.89 499.73 538.6 489.79 537.38 479.67 536.63 468.84 535.44 457.53 534.06 446.17 533.83 434.42 533.86 422.42 534.21 410.42 536.04 398.73 538.04 387.45 540.03 376.13 542.91 365.14 545.22 354.54 546.71 343.82 548.34 333.42 548.66 323.38 547.57 313.18 546.1 303.31 543.03 293.85 538.43 284.26 533.33 275.12 526.78 266.58 518.99 258.06 510.83 250.27 501.61 243.42 491.58 236.83 481.38 231.37 470.54 227.28 459.28 223.71 447.97 221.67 436.34 221.36 424.53 221.74 412.72 223.83 401.29 227.46 390.3 231.6 379.26 237.1 368.59 243.72 358.32 250.58 347.91 258.38 337.79 266.9 327.98 275.42 317.94 284.55 308.13 294.12 298.61 303.54 288.82 313.38 279.33 323.55 270.27 333.55 261.07 343.92 252.44 354.6 244.62 365.17 236.98 376.13 230.39 387.43 225.17 398.69 220.53 410.36 217.53 422.36 216.43" stroke-dasharray="9 11" transform="rotate(44.44, 400, 400)" opacity="0.80"></path><path d="M422.36 227.02C433.56 226.79 444.43 228.37 454.84 231.58 465.21 235.46 475.03 240.78 484.12 247.31 493.04 254.22 501.09 262.11 508.07 270.74 514.74 279.47 520.2 288.79 524.32 298.49 528.06 308.13 530.45 318.11 531.46 328.29 532.28 338.36 531.94 348.68 530.59 359.14 529.55 369.53 527.92 380.14 525.95 390.89 524.91 401.61 523.96 412.53 523.22 423.54 523.82 434.55 524.63 445.11 525.56 455.1 527.44 465.05 528.99 474.34 529.98 482.81 531.3 491.12 531.63 498.5 530.82 504.78 528.66 513.21 517.03 523.51 507.72 525.41 500.79 526.27 492.8 526.17 483.92 525.28 474.87 524.87 465.09 524.07 454.74 523.07 444.36 523.08 433.49 523.25 422.3 523.62 411.1 525.26 400.1 526.97 389.4 528.61 378.67 531.06 368.19 532.99 358.02 534.21 347.78 535.61 337.79 535.9 328.13 534.97 318.37 533.8 308.9 531.22 299.85 527.29 290.72 522.98 282.04 517.34 273.96 510.54 265.93 503.43 258.62 495.29 252.22 486.33 246.08 477.21 241.01 467.41 237.23 457.11 233.93 446.77 232.05 436.02 231.77 424.99 232.11 413.96 234.05 403.18 237.41 392.72 241.24 382.23 246.35 372 252.52 362.09 258.94 352.06 266.26 342.26 274.3 332.74 282.37 323.03 291.04 313.53 300.15 304.33 309.18 294.95 318.62 285.86 328.36 277.23 337.99 268.54 347.95 260.42 358.17 253.11 368.31 246 378.77 239.9 389.48 235.08 400.17 230.81 411.16 228.04 422.36 227.02" stroke-dasharray="5 11" transform="rotate(48.48, 400, 400)" opacity="0.50"></path><path d="M421.3 237.61C431.68 237.37 441.65 238.77 451.11 241.66 460.53 245.14 469.35 249.96 477.42 255.9 485.36 262.21 492.44 269.46 498.51 277.43 504.33 285.55 509.05 294.24 512.57 303.34 515.83 312.43 517.9 321.86 518.8 331.5 519.6 341.07 519.43 350.87 518.4 360.79 517.68 370.65 516.46 380.68 514.91 390.78 514.17 400.87 513.44 411.07 512.81 421.25 513.31 431.44 513.92 441.12 514.55 450.2 516.02 459.22 517.16 467.57 517.82 475.11 518.9 485.78 516.26 501.94 512.01 507.17 508.53 510.12 503.86 512.01 498.08 512.87 492.06 513.79 485.03 513.91 477.13 513.35 469.09 513.25 460.3 512.8 450.91 512.14 441.47 512.36 431.51 512.64 421.14 513.03 410.77 514.49 400.5 515.94 390.43 517.26 380.34 519.3 370.43 520.87 360.77 521.81 351.06 522.97 341.56 523.18 332.36 522.34 323.1 521.37 314.12 519.18 305.54 515.8 296.93 512.14 288.77 507.29 281.19 501.37 273.7 495.2 266.9 488.05 260.97 480.09 255.3 471.99 250.64 463.19 247.17 453.84 244.14 444.44 242.43 434.57 242.18 424.34 242.49 414.1 244.26 404 247.35 394.12 250.86 384.22 255.57 374.49 261.27 365 267.22 355.43 274.04 346.03 281.54 336.87 289.12 327.59 297.28 318.5 305.88 309.7 314.44 300.79 323.4 292.18 332.65 284.05 341.82 275.91 351.3 268.35 360.99 261.57 370.63 255.01 380.53 249.41 390.6 245 400.66 241.09 410.93 238.56 421.3 237.61" stroke-dasharray="2 5" transform="rotate(52.52, 400, 400)" opacity="0.49"></path><path d="M419.26 248.21C428.8 247.95 437.88 249.18 446.41 251.75 454.91 254.84 462.79 259.16 469.93 264.52 476.96 270.22 483.17 276.81 488.44 284.1 493.53 291.54 497.63 299.57 500.68 307.99 503.55 316.46 505.41 325.26 506.26 334.28 507.1 343.27 507.11 352.47 506.39 361.76 505.98 371.03 505.12 380.42 503.94 389.82 503.46 399.22 502.93 408.66 502.4 418.02 502.81 427.38 503.24 436.2 503.62 444.4 504.71 452.55 505.5 460.03 505.85 466.72 506.51 476.19 503.87 490.47 500.1 495.11 495.05 498.69 479.63 501.67 469.55 501.59 462.44 501.78 454.59 501.64 446.12 501.27 437.6 501.66 428.53 502.05 419.01 502.44 409.48 503.73 399.97 504.93 390.58 505.98 381.19 507.64 371.9 508.87 362.81 509.54 353.71 510.46 344.77 510.55 336.1 509.75 327.41 508.89 318.99 507 310.95 504.06 302.93 500.94 295.33 496.75 288.31 491.6 281.39 486.26 275.13 480 269.7 472.96 264.51 465.8 260.26 457.94 257.11 449.5 254.36 441.02 252.81 432.02 252.59 422.6 252.87 413.18 254.48 403.79 257.28 394.53 260.48 385.27 264.77 376.1 269.99 367.11 275.46 358.06 281.74 349.14 288.67 340.44 295.7 331.65 303.3 323.05 311.32 314.75 319.35 306.38 327.76 298.33 336.44 290.75 345.09 283.21 354.01 276.24 363.11 270.01 372.18 264.02 381.45 258.92 390.84 254.92 400.22 251.37 409.73 249.07 419.26 248.21" stroke-dasharray="9 2" transform="rotate(56.56, 400, 400)" opacity="0.43"></path><path d="M416.33 258.8C425.01 258.53 433.21 259.6 440.86 261.86 448.47 264.58 455.47 268.41 461.76 273.19 467.96 278.28 473.41 284.2 478 290.78 482.47 297.53 486.06 304.83 488.74 312.54 491.31 320.31 493.02 328.42 493.88 336.74 494.78 345.06 494.98 353.58 494.55 362.19 494.43 370.78 493.9 379.47 493.05 388.13 492.8 396.8 492.43 405.46 491.99 413.99 492.33 422.52 492.59 430.5 492.76 437.85 493.52 445.19 493.99 451.86 494.05 457.79 492.95 472.56 483.7 486.45 477.48 488.3 472.91 489.43 467.49 489.98 461.32 490.02 455.05 490.45 448.07 490.58 440.48 490.47 432.86 491 424.66 491.46 415.99 491.84 407.32 492.98 398.6 493.97 389.94 494.76 381.28 496.08 372.69 496.99 364.24 497.41 355.8 498.07 347.49 498.03 339.44 497.23 331.38 496.43 323.58 494.74 316.15 492.16 308.76 489.46 301.78 485.83 295.34 481.34 289.03 476.71 283.33 471.25 278.41 465.04 273.72 458.74 269.88 451.76 267.05 444.19 264.58 436.59 263.19 428.45 263 419.85 263.24 411.25 264.69 402.61 267.22 394.03 270.09 385.44 273.97 376.89 278.69 368.47 283.65 360.03 289.37 351.67 295.7 343.51 302.15 335.3 309.14 327.28 316.54 319.53 323.97 311.78 331.77 304.34 339.82 297.37 347.86 290.47 356.16 284.11 364.6 278.46 373.03 273.04 381.62 268.44 390.27 264.85 398.93 261.66 407.65 259.59 416.33 258.8" stroke-dasharray="4 1" transform="rotate(60.599999999999994, 400, 400)" opacity="0.14"></path><path d="M412.64 269.39C420.47 269.12 427.81 270.03 434.61 272 441.38 274.36 447.56 277.71 453.09 281.91 458.56 286.4 463.33 291.65 467.34 297.5 471.28 303.53 474.46 310.09 476.85 317.03 479.2 324.06 480.81 331.42 481.71 338.98 482.69 346.58 483.07 354.35 482.92 362.2 483.04 370.06 482.79 377.99 482.23 385.88 482.17 393.78 481.94 401.63 481.58 409.34 481.85 417.04 481.99 424.2 481.97 430.78 482.55 440.3 482.36 456.02 481.15 462.09 475.86 470.91 460.42 477.96 452.6 478.63 447.09 479.27 440.92 479.62 434.17 479.73 427.39 480.36 420.05 480.87 412.24 481.25 404.42 482.24 396.51 483.03 388.62 483.6 380.74 484.61 372.88 485.24 365.15 485.43 357.42 485.85 349.81 485.67 342.43 484.83 335.07 484.04 327.95 482.5 321.18 480.19 314.46 477.83 308.14 474.66 302.32 470.73 296.64 466.72 291.52 461.95 287.11 456.49 282.92 450.97 279.51 444.81 277 438.07 274.8 431.3 273.57 424 273.41 416.22 273.62 408.44 274.9 400.57 277.15 392.7 279.71 384.84 283.16 376.98 287.39 369.2 291.83 361.42 296.97 353.71 302.68 346.16 308.51 338.61 314.85 331.23 321.57 324.12 328.35 317.04 335.48 310.27 342.84 303.94 350.22 297.7 357.82 291.98 365.55 286.92 373.28 282.07 381.14 277.98 389.02 274.79 396.91 271.94 404.82 270.1 412.64 269.39" stroke-dasharray="8 0" transform="rotate(64.64, 400, 400)" opacity="0.09"></path><path d="M408.37 279.99C415.34 279.72 421.85 280.48 427.85 282.17 433.82 284.18 439.26 287.07 444.1 290.72 448.9 294.61 453.08 299.19 456.61 304.32 460.09 309.62 462.93 315.41 465.11 321.56 467.28 327.8 468.83 334.37 469.79 341.13 470.84 347.94 471.39 354.92 471.47 361.97 471.8 369.04 471.79 376.17 471.48 383.25 471.57 390.34 471.47 397.38 471.18 404.26 471.4 414.33 471.47 431.81 471.06 439.1 469.07 450.88 460.95 462.68 456.06 464.69 450.45 466.47 436.04 468.5 427.36 469.05 421.38 469.75 414.87 470.3 407.91 470.66 400.95 471.51 393.87 472.13 386.78 472.5 379.71 473.24 372.64 473.63 365.66 473.61 358.7 473.8 351.84 473.48 345.19 472.6 338.57 471.79 332.17 470.35 326.1 468.26 320.1 466.16 314.46 463.37 309.29 459.91 304.24 456.41 299.72 452.25 295.84 447.47 292.15 442.66 289.15 437.24 286.95 431.28 285.02 425.31 283.95 418.82 283.82 411.86 284 404.91 285.12 397.83 287.1 390.72 289.33 383.62 292.37 376.49 296.1 369.43 300.02 362.36 304.57 355.36 309.64 348.51 314.83 341.67 320.49 334.99 326.5 328.58 332.58 322.21 338.99 316.15 345.61 310.5 352.27 304.95 359.13 299.87 366.09 295.41 373.07 291.13 380.15 287.53 387.22 284.74 394.31 282.24 401.39 280.62 408.37 279.99" stroke-dasharray="1 10" transform="rotate(68.68, 400, 400)" opacity="0.30"></path><path d="M403.7 290.58C415.96 290.35 426.5 293.6 434.98 299.61 443.35 306.43 449.62 315.58 453.61 326.19 457.68 337.15 459.85 349.24 460.24 361.65 461.45 374.16 461.61 386.86 460.77 398.99 461.47 411.12 461.18 421.46 459.87 429.72 459.41 437.95 457.18 444.16 453.08 448.26 449.07 452.62 442.81 455.3 434.45 456.43 425.99 458.54 415.46 459.77 403.22 460.06 390.97 461.88 378.29 462.54 365.91 461.96 353.62 462.11 341.73 460.31 330.99 456.46 320.54 452.66 311.47 446.5 304.59 438.18 298.37 429.77 294.68 419.26 294.23 406.98 294.77 394.7 298.55 381.9 304.83 369.29 311.78 356.71 320.89 344.37 331.38 332.99 342.15 321.81 354.06 311.84 366.36 303.94 378.75 296.7 391.44 291.97 403.7 290.58" stroke-dasharray="8 8" transform="rotate(72.72, 400, 400)" opacity="0.64"></path><path d="M398.87 301.17C409.47 300.9 418.57 303.58 425.91 308.6 433.2 314.28 438.75 321.99 442.42 331.01 446.23 340.35 448.47 350.72 449.2 361.43 450.6 372.23 450.99 383.24 450.36 393.77 450.87 404.3 450.37 413.3 448.89 420.56 446.93 430.64 435.46 442.83 425.4 445.63 418.06 447.81 408.97 449.13 398.38 449.47 387.79 450.96 376.8 451.29 366.07 450.48 355.43 450.27 345.16 448.41 335.92 444.86 326.95 441.42 319.21 436.02 313.38 428.8 308.1 421.53 304.99 412.44 304.63 401.78 305.07 391.12 308.26 379.97 313.61 368.95 319.5 358 327.28 347.26 336.29 337.42 345.57 327.78 355.86 319.23 366.51 312.52 377.26 306.36 388.26 302.35 398.87 301.17" stroke-dasharray="6 11" transform="rotate(76.76, 400, 400)" opacity="0.12"></path><path d="M394.08 311.76C403.07 311.47 410.81 313.61 417.1 317.7 423.38 322.3 428.26 328.62 431.63 336.09 435.15 343.81 437.4 352.47 438.38 361.47 439.86 370.56 440.41 379.86 439.95 388.82 440.31 397.78 439.67 405.51 438.11 411.83 435.91 420.68 425.35 432.07 416.62 435.02 410.33 437.19 402.59 438.52 393.61 438.88 384.64 440.07 375.34 440.15 366.29 439.19 357.32 438.7 348.69 436.82 340.96 433.57 333.47 430.44 327.04 425.72 322.24 419.52 317.87 413.31 315.31 405.57 315.04 396.51 315.38 387.44 318.01 377.95 322.44 368.6 327.3 359.3 333.77 350.22 341.31 341.94 349.07 333.85 357.72 326.73 366.71 321.17 375.79 316.06 385.1 312.74 394.08 311.76" stroke-dasharray="10 9" transform="rotate(80.80000000000001, 400, 400)" opacity="0.15"></path><path d="M389.57 322.36C396.98 322.06 403.41 323.71 408.71 326.94 414.02 330.52 418.24 335.52 421.29 341.49 424.47 347.66 426.64 354.63 427.75 361.95 429.23 369.34 429.86 376.96 429.54 384.38 429.43 395.03 425.24 411.3 420.92 416.84 415.72 421.66 399.76 427.3 389.14 428.29 381.75 429.2 374.13 429.1 366.74 428.07 359.42 427.39 352.42 425.56 346.19 422.64 340.14 419.83 334.99 415.77 331.17 410.54 327.67 405.32 325.64 398.88 325.45 391.39 325.7 383.89 327.79 376.08 331.35 368.4 335.21 360.77 340.41 353.36 346.5 346.65 352.76 340.09 359.79 334.35 367.13 329.91 374.54 325.8 382.17 323.14 389.57 322.36" stroke-dasharray="10 10" transform="rotate(84.84, 400, 400)" opacity="0.34"></path><path d="M385.55 332.95C397.28 332.71 406.22 338.32 411.45 347.28 417.08 356.78 419.9 368.82 419.13 380.63 419.77 392.42 416.85 401.65 411.15 407.4 405.86 413.66 396.9 417.41 385.18 417.69 373.45 419.4 361.37 417.33 351.68 412.14 342.49 407.33 336.38 398.56 335.86 386.65 336.48 374.74 342.68 362.09 351.94 351.6 361.69 341.59 373.81 334.45 385.55 332.95" stroke-dasharray="4 4" transform="rotate(88.88, 400, 400)" opacity="0.65"></path><path d="M382.19 343.54C390.91 343.23 397.83 347.14 402.13 353.52 406.7 360.22 409.16 368.93 408.72 377.74 409.06 386.55 406.52 393.75 401.9 398.51 397.55 403.59 390.61 406.76 381.9 407.1 373.18 408.23 364.4 406.34 357.5 402.13 350.89 398.16 346.56 391.38 346.27 382.51 346.64 373.63 351.04 364.41 357.7 356.89 364.66 349.66 373.46 344.57 382.19 343.54" stroke-dasharray="1 7" transform="rotate(92.92, 400, 400)" opacity="0.47"></path><path d="M379.66 354.14C391.22 353.88 399.04 364.12 398.31 375.84 398.92 387.55 391.01 396.24 379.46 396.51 367.89 398.16 357.23 390.92 356.68 379.15 357.34 367.37 368.09 355.69 379.66 354.14" stroke-dasharray="1 5" transform="rotate(96.96, 400, 400)" opacity="0.76"></path></g></svg>