<svg width="120" height="60" viewBox="0 0 120 60" fill="none" xmlns="http://www.w3.org/2000/svg">
<g style="mix-blend-mode:luminosity" clip-path="url(#clip0_25_55)">
<path d="M114.54 60C80.2896 43.8764 125.194 10.8633 110.045 6.0413C88.4266 -0.836427 15.4351 45.5945 1.30593 49.0359C-4.82692 50.5274 11.2762 36.6459 35.9834 23.4548C58.2445 11.5687 87.7284 0.327496 110.045 0.02014C132.522 -0.841466 110.286 24.4071 107.689 35.2754C105.122 46.0228 108.543 50.9708 114.54 60Z" fill="#F9B60C"/>
<path d="M21.0657 55.6214L20.0008 51.6661L18.9461 55.6214H21.0707H21.0657ZM21.6835 57.9997H18.2931L17.8209 59.8186H14.7721L18.4036 48.8142H21.6634L25.2949 59.8186H22.1657L21.6835 57.9997Z" fill="black"/>
<path d="M25.5912 57.6016L28.2533 57.3144C28.3638 57.6721 28.5145 57.9342 28.7154 58.0853C28.9113 58.2415 29.1775 58.3171 29.509 58.3171C29.8706 58.3171 30.1469 58.2314 30.3478 58.0551C30.5035 57.9241 30.5789 57.7628 30.5789 57.5663C30.5789 57.3446 30.4784 57.1784 30.2775 57.0574C30.1318 56.9718 29.7451 56.866 29.1222 56.745C28.188 56.5586 27.5401 56.3873 27.1784 56.2311C26.8168 56.0749 26.5104 55.8079 26.2592 55.43C26.0131 55.0521 25.8876 54.6288 25.8876 54.1451C25.8876 53.6211 26.0232 53.1676 26.2894 52.7897C26.5556 52.4118 26.9273 52.1246 27.3994 51.9382C27.8716 51.7518 28.4994 51.656 29.293 51.656C30.1268 51.656 30.7446 51.7266 31.1414 51.8727C31.5382 52.0188 31.8697 52.2405 32.1359 52.5479C32.4021 52.8552 32.6231 53.2684 32.7989 53.7874L30.2524 54.0746C30.1871 53.8176 30.0766 53.6312 29.9209 53.5102C29.7099 53.349 29.4537 53.2684 29.1574 53.2684C28.8611 53.2684 28.635 53.3288 28.4944 53.4498C28.3538 53.5707 28.2885 53.7219 28.2885 53.8932C28.2885 54.0897 28.3789 54.2358 28.5496 54.3366C28.7254 54.4373 29.1072 54.528 29.6948 54.6087C30.5889 54.7245 31.2519 54.8858 31.6839 55.0873C32.1209 55.2939 32.4524 55.5862 32.6834 55.9641C32.9145 56.3419 33.03 56.7602 33.03 57.2187C33.03 57.6772 32.9094 58.1256 32.6633 58.564C32.4172 58.9973 32.0355 59.345 31.5081 59.6019C30.9807 59.8589 30.2674 59.9899 29.3633 59.9899C28.0825 59.9899 27.1734 59.7833 26.6309 59.3651C26.0885 58.9469 25.7419 58.3574 25.5862 57.5915" fill="black"/>
<path d="M33.8437 57.6016L36.5058 57.3144C36.6163 57.6721 36.772 57.9342 36.9679 58.0853C37.1638 58.2415 37.43 58.3171 37.7615 58.3171C38.1231 58.3171 38.3994 58.2314 38.6003 58.0551C38.756 57.9241 38.8313 57.7628 38.8313 57.5663C38.8313 57.3446 38.7309 57.1784 38.53 57.0574C38.3843 56.9718 38.0026 56.866 37.3747 56.745C36.4455 56.5586 35.7976 56.3873 35.4309 56.2311C35.0693 56.0749 34.7629 55.8079 34.5167 55.43C34.2706 55.0521 34.1451 54.6288 34.1451 54.1451C34.1451 53.6211 34.2807 53.1676 34.5469 52.7897C34.8131 52.4118 35.1848 52.1246 35.6569 51.9382C36.1291 51.7518 36.7569 51.656 37.5505 51.656C38.3843 51.656 39.0021 51.7266 39.3989 51.8727C39.7957 52.0188 40.1272 52.2405 40.3934 52.5479C40.6596 52.8552 40.8806 53.2684 41.0564 53.7874L38.5099 54.0746C38.4446 53.8176 38.3341 53.6312 38.1784 53.5102C37.9674 53.349 37.7113 53.2684 37.4149 53.2684C37.1186 53.2684 36.8925 53.3288 36.7519 53.4498C36.6113 53.5707 36.546 53.7219 36.546 53.8932C36.546 54.0897 36.6314 54.2358 36.8071 54.3366C36.9829 54.4373 37.3647 54.528 37.9523 54.6087C38.8464 54.7245 39.5094 54.8858 39.9464 55.0873C40.3834 55.2939 40.7149 55.5862 40.9459 55.9641C41.177 56.3419 41.2925 56.7602 41.2925 57.2187C41.2925 57.6772 41.172 58.1256 40.9259 58.564C40.6797 58.9973 40.298 59.345 39.7706 59.6019C39.2482 59.8589 38.53 59.9899 37.6259 59.9899C36.3451 59.9899 35.4359 59.7833 34.8935 59.3651C34.351 58.9469 33.9994 58.3574 33.8487 57.5915" fill="black"/>
<path d="M49.9468 59.8186H47.4405V58.5287C47.0688 59.0578 46.6921 59.4357 46.3103 59.6624C45.9286 59.8892 45.4615 60 44.909 60C44.1706 60 43.593 59.7481 43.1711 59.2442C42.7491 58.7403 42.5432 57.9644 42.5432 56.9214V51.8475H45.2405V56.2311C45.2405 56.7299 45.3208 57.0877 45.4866 57.2993C45.6473 57.5109 45.8784 57.6167 46.1747 57.6167C46.4962 57.6167 46.7574 57.4756 46.9633 57.1985C47.1692 56.9164 47.2697 56.4175 47.2697 55.692V51.8576H49.9519V59.8287L49.9468 59.8186Z" fill="black"/>
<path d="M51.5994 51.8425H54.1108V53.1475C54.3519 52.5831 54.603 52.1952 54.8592 51.9785C55.1153 51.7669 55.4318 51.6611 55.8135 51.6611C56.1952 51.6611 56.6423 51.8021 57.1144 52.0793L56.2856 54.256C55.9692 54.1048 55.7181 54.0292 55.5322 54.0292C55.1806 54.0292 54.9094 54.1955 54.7135 54.523C54.4373 54.9866 54.2966 55.8582 54.2966 57.133V59.8035H51.5994V51.8324V51.8425Z" fill="black"/>
<path d="M62.5742 56.0346C62.2025 56.1858 61.8208 56.3168 61.4189 56.4327C60.8765 56.5989 60.5299 56.7602 60.3842 56.9214C60.2336 57.0877 60.1582 57.2741 60.1582 57.4857C60.1582 57.7276 60.2336 57.9241 60.3792 58.0752C60.5249 58.2264 60.7459 58.302 61.0272 58.302C61.3084 58.302 61.6048 58.2214 61.8609 58.0551C62.1171 57.8888 62.303 57.6873 62.4084 57.4505C62.5189 57.2136 62.5692 56.9063 62.5692 56.5233V56.0346H62.5742ZM60.2486 54.4273L57.682 54.1199C57.7774 53.611 57.918 53.2079 58.0989 52.9157C58.2797 52.6234 58.5459 52.3665 58.8874 52.1549C59.1336 51.9987 59.4701 51.8777 59.9021 51.7921C60.334 51.7064 60.8011 51.6661 61.2984 51.6661C62.102 51.6661 62.75 51.7165 63.2372 51.8173C63.7244 51.918 64.1313 52.1347 64.4577 52.4572C64.6838 52.6839 64.8646 53.0013 65.0002 53.4145C65.1308 53.8277 65.1961 54.2207 65.1961 54.5986V58.1206C65.1961 58.4985 65.2162 58.7907 65.2564 59.0024C65.3016 59.214 65.392 59.4861 65.5276 59.8186H63.0112C62.9107 59.612 62.8454 59.4558 62.8153 59.35C62.7851 59.2442 62.755 59.0729 62.7249 58.8411C62.3733 59.2241 62.0217 59.5012 61.6751 59.6675C61.203 59.8892 60.6504 60 60.0226 60C59.1888 60 58.5559 59.7783 58.119 59.3399C57.687 58.9016 57.471 58.3574 57.471 57.7125C57.471 57.1078 57.6267 56.609 57.9381 56.221C58.2495 55.8331 58.8272 55.5408 59.666 55.3493C60.6705 55.1176 61.3235 54.9563 61.6249 54.8656C61.9262 54.7749 62.2377 54.649 62.5742 54.5029C62.5742 54.125 62.5039 53.8629 62.3682 53.7118C62.2326 53.5606 61.9915 53.4851 61.65 53.4851C61.213 53.4851 60.8815 53.5657 60.6605 53.7269C60.4897 53.8529 60.3491 54.0846 60.2436 54.4323" fill="black"/>
<path d="M66.8084 51.8425H69.3098V53.1424C69.6815 52.6134 70.0632 52.2355 70.4449 52.0037C70.8267 51.777 71.2938 51.6611 71.8413 51.6611C72.5846 51.6611 73.1673 51.913 73.5842 52.4169C74.0011 52.9207 74.212 53.6967 74.212 54.7497V59.8186H71.5148V55.435C71.5148 54.9362 71.4344 54.5784 71.2687 54.3718C71.1079 54.1653 70.8769 54.0595 70.5805 54.0595C70.2541 54.0595 69.9929 54.2005 69.792 54.4827C69.591 54.7649 69.4906 55.2637 69.4906 55.9943V59.8236H66.8084V51.8525V51.8425Z" fill="black"/>
<path d="M81.0381 56.6947L83.5897 57.0272C83.449 57.6318 83.218 58.1559 82.8965 58.5993C82.575 59.0427 82.1632 59.3853 81.6659 59.6322C81.1687 59.8791 80.5308 60 79.7623 60C78.9938 60 78.4011 59.9194 77.9038 59.7632C77.4066 59.607 76.9847 59.35 76.628 58.9973C76.2714 58.6446 75.9952 58.2314 75.7892 57.7578C75.5883 57.2842 75.4879 56.6543 75.4879 55.8683C75.4879 55.0823 75.6084 54.3668 75.8595 53.8226C76.0404 53.4246 76.2865 53.0618 76.5979 52.7444C76.9093 52.4269 77.2308 52.1901 77.5623 52.0339C78.0847 51.787 78.7577 51.6661 79.5714 51.6661C80.7166 51.6661 81.5855 51.8979 82.1833 52.3614C82.786 52.825 83.2029 53.5102 83.449 54.4021L80.9225 54.785C80.8422 54.4424 80.7015 54.1854 80.4906 54.0141C80.2796 53.8428 80.0034 53.7571 79.6518 53.7571C79.2098 53.7571 78.8481 53.9385 78.5719 54.3013C78.2956 54.6641 78.16 55.2133 78.16 55.9489C78.16 56.604 78.2956 57.0978 78.5668 57.4404C78.8381 57.778 79.1846 57.9493 79.6066 57.9493C79.9582 57.9493 80.2545 57.8485 80.4956 57.6419C80.7367 57.4353 80.9125 57.1229 81.033 56.6947" fill="black"/>
<path d="M89.8631 55.1226C89.8129 54.5331 89.6722 54.1098 89.4462 53.8529C89.2202 53.5959 88.9238 53.4699 88.5522 53.4699C88.1252 53.4699 87.7837 53.6614 87.5325 54.0494C87.3718 54.2912 87.2663 54.649 87.2211 55.1226H89.8631ZM92.5955 56.5888H87.2161C87.2663 57.0776 87.3818 57.4454 87.5677 57.6873C87.8289 58.0299 88.1654 58.2062 88.5823 58.2062C88.8435 58.2062 89.0946 58.1307 89.3357 57.9795C89.4814 57.8838 89.6371 57.7175 89.8028 57.4756L92.4448 57.7528C92.043 58.5539 91.5508 59.1283 90.9832 59.476C90.4106 59.8236 89.5919 60 88.522 60C87.5928 60 86.8645 59.8539 86.3321 59.5516C85.7997 59.2543 85.3577 58.7807 85.0111 58.1307C84.6595 57.4807 84.4887 56.7199 84.4887 55.8431C84.4887 54.5986 84.8403 53.5909 85.5385 52.82C86.2417 52.049 87.206 51.6661 88.4417 51.6661C89.4462 51.6661 90.2348 51.8374 90.8174 52.1851C91.4001 52.5328 91.8371 53.0316 92.1435 53.6866C92.4448 54.3416 92.6005 55.1982 92.6005 56.2462V56.5939L92.5955 56.5888Z" fill="black"/>
<path d="M93.354 57.6016L96.0161 57.3144C96.1266 57.6721 96.2773 57.9342 96.4782 58.0853C96.6741 58.2415 96.9403 58.3171 97.2718 58.3171C97.6334 58.3171 97.9097 58.2314 98.1106 58.0551C98.2663 57.9241 98.3417 57.7628 98.3417 57.5663C98.3417 57.3446 98.2412 57.1784 98.0353 57.0574C97.8896 56.9718 97.5079 56.866 96.88 56.745C95.9458 56.5586 95.2978 56.3873 94.9362 56.2311C94.5745 56.0749 94.2682 55.8079 94.022 55.43C93.7709 55.0521 93.6503 54.6288 93.6503 54.1451C93.6503 53.6211 93.786 53.1676 94.0522 52.7897C94.3184 52.4118 94.6901 52.1246 95.1622 51.9382C95.6344 51.7518 96.2622 51.656 97.0558 51.656C97.8896 51.656 98.5074 51.7266 98.9042 51.8727C99.301 52.0188 99.6325 52.2405 99.8987 52.5479C100.165 52.8552 100.386 53.2684 100.562 53.7874L98.0152 54.0746C97.9499 53.8176 97.8394 53.6312 97.6837 53.5102C97.4727 53.349 97.2165 53.2684 96.9202 53.2684C96.6239 53.2684 96.3978 53.3288 96.2572 53.4498C96.1165 53.5707 96.0513 53.7219 96.0513 53.8932C96.0513 54.0897 96.1366 54.2358 96.3175 54.3366C96.4933 54.4373 96.875 54.528 97.4627 54.6087C98.3567 54.7245 99.0197 54.8858 99.4517 55.0873C99.8887 55.2939 100.22 55.5862 100.451 55.9641C100.682 56.3419 100.798 56.7602 100.798 57.2187C100.798 57.6772 100.677 58.1256 100.431 58.564C100.185 58.9973 99.8033 59.345 99.2759 59.6019C98.7485 59.8589 98.0353 59.9899 97.1312 59.9899C95.8503 59.9899 94.9412 59.7833 94.3987 59.3651C93.8563 58.9469 93.5097 58.3574 93.354 57.5915" fill="black"/>
<path d="M15.7515 37.7242L24.5816 36.7467C24.9483 37.9812 25.4556 38.868 26.1136 39.397C26.7716 39.9311 27.6456 40.1931 28.7355 40.1931C29.9309 40.1931 30.8551 39.8908 31.5131 39.2912C32.0255 38.8478 32.2766 38.2885 32.2766 37.6184C32.2766 36.8626 31.9401 36.2832 31.272 35.87C30.7898 35.5778 29.514 35.22 27.4446 34.7917C24.3556 34.1569 22.2109 33.5724 21.0104 33.0282C19.81 32.4891 18.7954 31.5771 17.9716 30.2922C17.1479 29.0074 16.736 27.5411 16.736 25.8935C16.736 24.0947 17.183 22.5428 18.0721 21.2378C18.9611 19.9379 20.1867 18.9604 21.7438 18.3205C23.3008 17.6755 25.3953 17.3581 28.0173 17.3581C30.7848 17.3581 32.8291 17.605 34.1501 18.1038C35.4661 18.6026 36.5661 19.3735 37.4501 20.4216C38.3341 21.4696 39.0624 22.8855 39.6451 24.6691L31.2067 25.6466C30.9857 24.7699 30.6241 24.13 30.1118 23.7168C29.4136 23.1676 28.5647 22.8955 27.5752 22.8955C26.5857 22.8955 25.8373 23.1072 25.3803 23.5254C24.9232 23.9436 24.6921 24.4525 24.6921 25.0571C24.6921 25.7272 24.9835 26.2311 25.5661 26.5737C26.1488 26.9164 27.4145 27.2237 29.3684 27.5008C32.3268 27.8939 34.5268 28.4431 35.9684 29.1485C37.4099 29.8539 38.5149 30.8566 39.2784 32.1565C40.0419 33.4615 40.4236 34.8925 40.4236 36.4494C40.4236 38.0064 40.0218 39.5633 39.2131 41.0548C38.4044 42.5462 37.1286 43.7353 35.3857 44.6171C33.6428 45.4988 31.272 45.9422 28.2734 45.9422C24.0342 45.9422 21.0155 45.2318 19.2123 43.8058C17.4141 42.3799 16.2588 40.3544 15.7465 37.7293" fill="black"/>
<path d="M60.4897 32.343C59.2642 32.8569 57.9884 33.3154 56.6674 33.7084C54.8592 34.2728 53.719 34.832 53.2368 35.3813C52.7395 35.9456 52.4934 36.5905 52.4934 37.3111C52.4934 38.1323 52.7395 38.8075 53.2267 39.3315C53.714 39.8556 54.4322 40.1176 55.3815 40.1176C56.3308 40.1176 57.2952 39.8354 58.1441 39.266C58.998 38.7017 59.6007 38.0114 59.9573 37.1952C60.3139 36.3789 60.4947 35.3208 60.4947 34.0158V32.343H60.4897ZM52.7747 26.8357L44.2711 25.7827C44.5925 24.0292 45.0546 22.6537 45.6574 21.651C46.2601 20.6483 47.1341 19.7766 48.2692 19.0359C49.0829 18.5018 50.208 18.0937 51.6345 17.8015C53.061 17.5092 54.608 17.3631 56.2706 17.3631C58.9377 17.3631 61.0774 17.5395 62.6947 17.8922C64.3121 18.2449 65.6582 18.9805 66.7381 20.0941C67.4965 20.865 68.0943 21.9583 68.5312 23.3742C68.9682 24.7901 69.1842 26.1404 69.1842 27.4303V39.5029C69.1842 40.7927 69.2545 41.8005 69.3952 42.526C69.5308 43.2566 69.8372 44.1837 70.2993 45.3174H61.9514C61.6148 44.612 61.3989 44.0779 61.2934 43.7101C61.1929 43.3423 61.0874 42.7628 60.987 41.9718C59.8217 43.2919 58.6614 44.2392 57.5112 44.8035C55.9391 45.5593 54.1108 45.9372 52.0263 45.9372C49.2587 45.9372 47.1542 45.1814 45.7227 43.6698C44.2861 42.1582 43.5679 40.299 43.5679 38.082C43.5679 36.006 44.0852 34.298 45.1199 32.9577C46.1546 31.6174 48.0633 30.6248 50.8459 29.9698C54.1811 29.1787 56.3459 28.6295 57.3354 28.3121C58.3249 27.9946 59.3747 27.5764 60.4847 27.0625C60.4847 25.7776 60.2587 24.8757 59.8066 24.3618C59.3546 23.8478 58.561 23.5909 57.4258 23.5909C55.9692 23.5909 54.8742 23.8629 54.1459 24.4122C53.5783 24.8404 53.1162 25.6466 52.7697 26.8307" fill="black"/>
<path d="M90.3453 32.343C89.1198 32.8569 87.844 33.3154 86.518 33.7084C84.7097 34.2728 83.5696 34.832 83.0874 35.3813C82.5901 35.9456 82.344 36.5905 82.344 37.3111C82.344 38.1323 82.5901 38.8075 83.0773 39.3315C83.5645 39.8556 84.2828 40.1176 85.2321 40.1176C86.1814 40.1176 87.1458 39.8354 87.9947 39.266C88.8485 38.7017 89.4513 38.0114 89.8079 37.1952C90.1645 36.3789 90.3453 35.3208 90.3453 34.0158V32.343ZM82.6303 26.8357L74.1267 25.7827C74.4481 24.0292 74.9102 22.6537 75.513 21.651C76.1157 20.6483 76.9897 19.7766 78.1248 19.0359C78.9385 18.5018 80.0636 18.0937 81.4901 17.8015C82.9166 17.5092 84.4636 17.3631 86.1262 17.3631C88.7933 17.3631 90.933 17.5395 92.5503 17.8922C94.1677 18.2449 95.5138 18.9805 96.5937 20.0941C97.3522 20.865 97.9499 21.9583 98.3869 23.3742C98.8238 24.7901 99.0398 26.1404 99.0398 27.4303V39.5029C99.0398 40.7927 99.1101 41.8005 99.2458 42.526C99.3864 43.2566 99.6878 44.1837 100.155 45.3174H91.807C91.4704 44.612 91.2545 44.0779 91.149 43.7101C91.0485 43.3423 90.943 42.7628 90.8426 41.9718C89.6773 43.2919 88.517 44.2392 87.3668 44.8035C85.7947 45.5593 83.9664 45.9372 81.8819 45.9372C79.1143 45.9372 77.0098 45.1814 75.5732 43.6698C74.1367 42.1582 73.4185 40.299 73.4185 38.082C73.4185 36.006 73.9358 34.298 74.9705 32.9577C76.0052 31.6174 77.9139 30.6248 80.6965 29.9698C84.0317 29.1787 86.1965 28.6295 87.186 28.3121C88.1755 27.9946 89.2253 27.5764 90.3353 27.0625C90.3353 25.7776 90.1093 24.8757 89.6572 24.3618C89.2052 23.8478 88.4115 23.5909 87.2764 23.5909C85.8198 23.5909 84.7248 23.8629 83.9965 24.4122C83.4289 24.8404 82.9718 25.6466 82.6203 26.8307" fill="black"/>
</g>
<defs>
<clipPath id="clip0_25_55">
<rect width="120" height="60" fill="white"/>
</clipPath>
</defs>
</svg>
